<svg xmlns="http://www.w3.org/2000/svg" width="23.846" height="13.846" viewBox="0 0 23.846 13.846"><g transform="translate(0.923 0.923)"><path d="M1,18c0-2.25,3-2.25,4.5-3.75C6.25,13.5,4,13.5,4,9.75Q4,6,7,6t3,3.75c0,3.75-2.25,3.75-1.5,4.5C10,15.75,13,15.75,13,18m-.208-2.273q.738-.268,1.21-.495a5.387,5.387,0,0,0,1.5-.982c.75-.75-1.5-.75-1.5-4.5Q14,6,17,6t3,3.75c0,3.75-2.25,3.75-1.5,4.5C20,15.75,23,15.75,23,18" transform="translate(-1 -6)" fill="none" stroke="#404040" stroke-linecap="square" stroke-width="1.846"/><path d="M12,16q.549-.186.792-.273" transform="translate(-1 -6)" fill="none" stroke="#404040" stroke-linecap="round" stroke-width="1.846"/></g></svg>